<svg id="enrichment_category_graph_svg" height="296.39952pt" version="1.1" viewBox="0 0 659.39976 296.39952" width="659.39976pt" xmlns="http://www.w3.org/2000/svg" xmlns:xlink="http://www.w3.org/1999/xlink">
 <metadata>
  <rdf:rdf xmlns:cc="http://creativecommons.org/ns#" xmlns:dc="http://purl.org/dc/elements/1.1/" xmlns:rdf="http://www.w3.org/1999/02/22-rdf-syntax-ns#">
   <cc:work>
    <dc:type rdf:resource="http://purl.org/dc/dcmitype/StillImage"/>
    <dc:date>2025-05-26T15:06:32.575196</dc:date>
    <dc:format>image/svg+xml</dc:format>
    <dc:creator>
     <cc:agent>
      <dc:title>Matplotlib v3.4.2, https://matplotlib.org/</dc:title>
     </cc:agent>
    </dc:creator>
   </cc:work>
  </rdf:rdf>
 </metadata>
 <defs>
  <style type="text/css">*{stroke-linecap:butt;stroke-linejoin:round;}</style>
 </defs>
 <g id="figure_1">
  <g id="patch_1">
   <path d="M 0 296.39952 &#xA;L 659.39976 296.39952 &#xA;L 659.39976 0 &#xA;L 0 0 &#xA;z&#xA;" style="fill:none;"/>
  </g>
  <g id="axes_1">
   <g id="patch_2">
    <path d="M 169.256094 265.022801 &#xA;L 548.026835 265.022801 &#xA;L 548.026835 21.207656 &#xA;L 169.256094 21.207656 &#xA;z&#xA;" style="fill:none;"/>
   </g>
   <g id="matplotlib.axis_1">
    <g id="xtick_1">
     <g id="line2d_1">
      <path clip-path="url(#pe805c6619c)" d="M 214.708583 265.022801 &#xA;L 214.708583 21.207656 &#xA;" style="fill:none;stroke:#d3d3d3;stroke-dasharray:2.22,0.96;stroke-dashoffset:0;stroke-width:0.6;"/>
     </g>
     <g id="line2d_2"/>
     <g id="text_1">
      <text style="font-family:Arial;font-size:9px;font-stretch:normal;font-style:normal;font-weight:normal;text-anchor:middle;" transform="rotate(-0, 214.708583, 274.964832)" x="214.708583" y="274.964832">0.8</text>
     </g>
    </g>
    <g id="xtick_2">
     <g id="line2d_3">
      <path clip-path="url(#pe805c6619c)" d="M 290.462731 265.022801 &#xA;L 290.462731 21.207656 &#xA;" style="fill:none;stroke:#d3d3d3;stroke-dasharray:2.22,0.96;stroke-dashoffset:0;stroke-width:0.6;"/>
     </g>
     <g id="line2d_4"/>
     <g id="text_2">
      <text style="font-family:Arial;font-size:9px;font-stretch:normal;font-style:normal;font-weight:normal;text-anchor:middle;" transform="rotate(-0, 290.462731, 274.964832)" x="290.462731" y="274.964832">1.0</text>
     </g>
    </g>
    <g id="xtick_3">
     <g id="line2d_5">
      <path clip-path="url(#pe805c6619c)" d="M 366.216879 265.022801 &#xA;L 366.216879 21.207656 &#xA;" style="fill:none;stroke:#d3d3d3;stroke-dasharray:2.22,0.96;stroke-dashoffset:0;stroke-width:0.6;"/>
     </g>
     <g id="line2d_6"/>
     <g id="text_3">
      <text style="font-family:Arial;font-size:9px;font-stretch:normal;font-style:normal;font-weight:normal;text-anchor:middle;" transform="rotate(-0, 366.216879, 274.964832)" x="366.216879" y="274.964832">1.2</text>
     </g>
    </g>
    <g id="xtick_4">
     <g id="line2d_7">
      <path clip-path="url(#pe805c6619c)" d="M 441.971027 265.022801 &#xA;L 441.971027 21.207656 &#xA;" style="fill:none;stroke:#d3d3d3;stroke-dasharray:2.22,0.96;stroke-dashoffset:0;stroke-width:0.6;"/>
     </g>
     <g id="line2d_8"/>
     <g id="text_4">
      <text style="font-family:Arial;font-size:9px;font-stretch:normal;font-style:normal;font-weight:normal;text-anchor:middle;" transform="rotate(-0, 441.971027, 274.964832)" x="441.971027" y="274.964832">1.4</text>
     </g>
    </g>
    <g id="xtick_5">
     <g id="line2d_9">
      <path clip-path="url(#pe805c6619c)" d="M 517.725175 265.022801 &#xA;L 517.725175 21.207656 &#xA;" style="fill:none;stroke:#d3d3d3;stroke-dasharray:2.22,0.96;stroke-dashoffset:0;stroke-width:0.6;"/>
     </g>
     <g id="line2d_10"/>
     <g id="text_5">
      <text style="font-family:Arial;font-size:9px;font-stretch:normal;font-style:normal;font-weight:normal;text-anchor:middle;" transform="rotate(-0, 517.725175, 274.964832)" x="517.725175" y="274.964832">1.6</text>
     </g>
    </g>
    <g id="text_6">
     <text style="font-family:Arial;font-size:9px;font-stretch:normal;font-style:normal;font-weight:normal;text-anchor:middle;" transform="rotate(-0, 358.641464, 287.305301)" x="358.641464" y="287.305301">Signal</text>
    </g>
   </g>
   <g id="matplotlib.axis_2">
    <g id="ytick_1">
     <g id="line2d_11"/>
     <g id="text_7">
      <text style="font-family:Arial;font-size:9px;font-stretch:normal;font-style:normal;font-weight:normal;" transform="translate(7.2 142.220854)">Neurotransmitter receptor complex, and</text>
      <text style="font-family:Arial;font-size:9px;font-stretch:normal;font-style:normal;font-weight:normal;" transform="translate(61.700625 151.740041)">Neurexins and neuroligins</text>
     </g>
    </g>
   </g>
   <g id="patch_3">
    <path clip-path="url(#pe805c6619c)" d="M 169.256094 84.599594 &#xA;L 548.026835 84.599594 &#xA;L 548.026835 194.316409 &#xA;L 169.256094 194.316409 &#xA;z&#xA;" style="fill:#7ad151;opacity:0.1;"/>
   </g>
   <g id="horizontalLine_NetworkNeighborAL:CL.22979">
    <path data-original-stroke="grey" clip-path="url(#pe805c6619c)" d="M 169.256094 143.115229 &#xA;L 358.641464 143.115229 &#xA;" style="fill:none;stroke:#7ad151;stroke-linecap:square;stroke-width:3;"/>
   </g>
   <g id="line2d_12">
    <path clip-path="url(#pe805c6619c)" d="M 169.256094 143.115229 &#xA;L 358.641464 143.115229 &#xA;" style="fill:none;stroke:#ffffff;stroke-linecap:square;stroke-opacity:0.4;stroke-width:3;"/>
   </g>
   <g id="dots_plot">
    <defs>
     <path d="M 0 12.247449 &#xA;C 3.248061 12.247449 6.363528 10.95698 8.660254 8.660254 &#xA;C 10.95698 6.363528 12.247449 3.248061 12.247449 0 &#xA;C 12.247449 -3.248061 10.95698 -6.363528 8.660254 -8.660254 &#xA;C 6.363528 -10.95698 3.248061 -12.247449 0 -12.247449 &#xA;C -3.248061 -12.247449 -6.363528 -10.95698 -8.660254 -8.660254 &#xA;C -10.95698 -6.363528 -12.247449 -3.248061 -12.247449 0 &#xA;C -12.247449 3.248061 -10.95698 6.363528 -8.660254 8.660254 &#xA;C -6.363528 10.95698 -3.248061 12.247449 0 12.247449 &#xA;z&#xA;" id="m0e4e1800d0" style="stroke:#7ad151;stroke-width:2.2;"/>
    </defs>
    <g id="circle_NetworkNeighborAL:CL.22979" data-original-stroke="grey" clip-path="url(#pe805c6619c)">
     <use style="fill:#7ad151;stroke:#7ad151;stroke-width:2.2;" x="358.641464" xlink:href="#m0e4e1800d0" y="143.115229"/>
    </g>
   </g>
   <g id="PathCollection_1">
    <path clip-path="url(#pe805c6619c)" d="M 358.641464 155.362677 &#xA;C 361.889526 155.362677 365.004992 154.072209 367.301718 151.775483 &#xA;C 369.598445 149.478757 370.888913 146.36329 370.888913 143.115229 &#xA;C 370.888913 139.867167 369.598445 136.751701 367.301718 134.454975 &#xA;C 365.004992 132.158248 361.889526 130.86778 358.641464 130.86778 &#xA;C 355.393403 130.86778 352.277936 132.158248 349.98121 134.454975 &#xA;C 347.684484 136.751701 346.394016 139.867167 346.394016 143.115229 &#xA;C 346.394016 146.36329 347.684484 149.478757 349.98121 151.775483 &#xA;C 352.277936 154.072209 355.393403 155.362677 358.641464 155.362677 &#xA;z&#xA;" style="fill:none;stroke:#808080;stroke-opacity:0.45;stroke-width:2.2;"/>
   </g>
   <g id="text_8">
    <text style="font-family:Arial;font-size:11px;font-stretch:normal;font-style:normal;font-weight:normal;text-anchor:middle;" transform="rotate(-0, 358.641464, 15.207656)" x="358.641464" y="15.207656">Local Network Cluster (STRING) enrichment</text>
   </g>
   <g id="line2d_13">
    <path clip-path="url(#pe805c6619c)" d="M 358.641464 132.143547 &#xA;L 358.641464 154.08691 &#xA;" style="fill:none;stroke:#808080;stroke-dasharray:1.85,0.8;stroke-dashoffset:0;stroke-width:0.5;"/>
   </g>
   <g id="invisibleRectangle_NetworkNeighborAL:CL.22979" style="cursor: pointer;">
    <path clip-path="url(#pe805c6619c)" d="M 169.256094 84.599594 &#xA;L 548.026835 84.599594 &#xA;L 548.026835 194.316409 &#xA;L 169.256094 194.316409 &#xA;z&#xA;" style="fill:#ffffff;opacity:0.01;"/>
   </g>
  </g>
  <g id="axes_2">
   <g id="patch_4">
    <path d="M 554.506835 265.022801 &#xA;L 649.19952 265.022801 &#xA;L 649.19952 21.207656 &#xA;L 554.506835 21.207656 &#xA;z&#xA;" style="fill:none;"/>
   </g>
   <g id="patch_5">
    <path clip-path="url(#p8248b2c25e)" d="M 554.506835 194.925947 &#xA;L 566.34342 194.925947 &#xA;L 566.34342 83.990056 &#xA;L 554.506835 83.990056 &#xA;z&#xA;" style="fill:#7ad151;"/>
   </g>
   <g id="matplotlib.axis_3"/>
   <g id="matplotlib.axis_4"/>
   <g id="text_9">
    <text style="font-family:Arial;font-size:9px;font-stretch:normal;font-style:normal;font-weight:normal;" transform="translate(580.508756 184.724787)rotate(-90)">Groups at similarity 0.8</text>
   </g>
  </g>
  <g id="axes_3">
   <g id="patch_6">
    <path d="M 587.39976 122.99976 &#xA;L 652.19976 122.99976 &#xA;L 652.19976 14.99976 &#xA;L 587.39976 14.99976 &#xA;z&#xA;" style="fill:none;"/>
   </g>
   <g id="PathCollection_2">
    <defs>
     <path d="M -70.710678 70.710678 &#xA;L 70.710678 70.710678 &#xA;L 70.710678 -70.710678 &#xA;L -70.710678 -70.710678 &#xA;z&#xA;" id="m0e82a85ef9" style="stroke:#ffffff;stroke-opacity:0.6;"/>
    </defs>
    <g clip-path="url(#pc15d4f4559)">
     <use style="fill:#ffffff;fill-opacity:0.6;stroke:#ffffff;stroke-opacity:0.6;" x="619.79976" xlink:href="#m0e82a85ef9" y="68.99976"/>
    </g>
   </g>
   <g id="matplotlib.axis_5">
    <g id="xtick_6"/>
    <g id="xtick_7"/>
    <g id="xtick_8"/>
   </g>
   <g id="matplotlib.axis_6">
    <g id="ytick_2"/>
    <g id="ytick_3"/>
    <g id="ytick_4"/>
    <g id="ytick_5"/>
    <g id="ytick_6"/>
   </g>
  </g>
  <g id="axes_4">
   <g id="patch_7">
    <path d="M 587.39976 181.24776 &#xA;L 648.95976 181.24776 &#xA;L 648.95976 128.37096 &#xA;L 587.39976 128.37096 &#xA;z&#xA;" style="fill:none;"/>
   </g>
   <g id="PathCollection_3">
    <g clip-path="url(#pe7fd5e1436)">
     <use style="fill:#ffffff;fill-opacity:0.6;stroke:#ffffff;stroke-opacity:0.6;" x="618.17976" xlink:href="#m0e82a85ef9" y="154.80936"/>
    </g>
   </g>
   <g id="matplotlib.axis_7">
    <g id="xtick_9"/>
    <g id="xtick_10"/>
    <g id="xtick_11"/>
   </g>
   <g id="matplotlib.axis_8">
    <g id="ytick_7"/>
    <g id="ytick_8"/>
    <g id="ytick_9"/>
   </g>
  </g>
 </g>
 <defs>
  <clipPath id="pe805c6619c">
   <rect height="243.815145" width="378.770741" x="169.256094" y="21.207656"/>
  </clipPath>
  <clipPath id="p8248b2c25e">
   <rect height="243.815145" width="94.692685" x="554.506835" y="21.207656"/>
  </clipPath>
  <clipPath id="pc15d4f4559">
   <rect height="108" width="64.8" x="587.39976" y="14.99976"/>
  </clipPath>
  <clipPath id="pe7fd5e1436">
   <rect height="52.8768" width="61.56" x="587.39976" y="128.37096"/>
  </clipPath>
 </defs>
</svg>